<?xml version="1.0" encoding="utf-8"?>
<!-- Generator: Adobe Illustrator 24.0.2, SVG Export Plug-In . SVG Version: 6.00 Build 0)  -->
<svg version="1.1" id="Layer_1" xmlns="http://www.w3.org/2000/svg" xmlns:xlink="http://www.w3.org/1999/xlink" x="0px" y="0px"
	 viewBox="0 0 300 262.89" style="enable-background:new 0 0 300 262.89;" xml:space="preserve">
<style type="text/css">
	.st0{fill:url(#SVGID_1_);}
	.st1{fill:url(#SVGID_2_);}
	.st2{fill:#21DBAC;}
	.st3{fill:#B3B9C4;}
</style>
<g>
	<g>
		<linearGradient id="SVGID_1_" gradientUnits="userSpaceOnUse" x1="137.1223" y1="161.9042" x2="258.2989" y2="42.3433">
			<stop  offset="0.1732" style="stop-color:#1AB08A"/>
			<stop  offset="0.5531" style="stop-color:#16C79A"/>
			<stop  offset="1" style="stop-color:#21DBAC"/>
		</linearGradient>
		<path class="st0" d="M84.96,175.39l-2.79-2.79L248.91,5.86c7.81-7.81,20.47-7.81,28.28,0l16.94,16.94
			c7.81,7.81,7.81,20.47,0,28.28L169.82,175.39C146.38,198.83,108.39,198.83,84.96,175.39z"/>
		<linearGradient id="SVGID_2_" gradientUnits="userSpaceOnUse" x1="31.5821" y1="78.2797" x2="130.9574" y2="173.6154">
			<stop  offset="0" style="stop-color:#16C79A"/>
			<stop  offset="0.8855" style="stop-color:#21DBAC"/>
		</linearGradient>
		<path class="st1" d="M172.61,172.6l-2.79,2.79c-23.43,23.43-61.42,23.43-84.85,0L5.87,96.3c-7.81-7.81-7.81-20.47,0-28.28
			l16.94-16.94c7.81-7.81,20.47-7.81,28.28,0L172.61,172.6z"/>
		<path class="st2" d="M181.16,164.05l-8.55,8.55l-8.55-8.55C168.78,168.77,176.44,168.77,181.16,164.05z"/>
	</g>
	<g>
		<path class="st3" d="M5.72,238.73v23.62H0v-56.39h17.24c6.32,0,11.11,1.51,14.38,4.54s4.9,6.85,4.9,11.48
			c0,4.63-1.28,8.38-3.84,11.24c-2.56,2.86-6.37,4.62-11.44,5.27l16.02,23.86h-7.44l-15.28-23.62H5.72z M5.72,210.62v23.45h11.52
			c8.99,0,13.48-3.91,13.48-11.73c0-7.82-4.49-11.73-13.48-11.73H5.72z"/>
		<path class="st3" d="M57.61,262.89c-4.25,0-7.7-1.42-10.35-4.25c-2.65-2.83-3.98-6.57-3.98-11.2c0-4.63,1.35-8.35,4.06-11.17
			c2.71-2.81,6.21-4.22,10.52-4.22c4.3,0,7.73,1.33,10.27,3.98c2.54,2.65,3.81,5.94,3.81,9.86c0,1.05-0.07,2.03-0.22,2.94H47.21
			c0.14,3.41,1.18,6.1,3.11,8.06c1.92,1.96,4.36,2.94,7.3,2.94c2.29,0,4.24-0.53,5.86-1.58c1.62-1.05,2.73-2.43,3.35-4.14h4.09
			c-0.98,2.54-2.58,4.64-4.79,6.29C63.9,262.07,61.06,262.89,57.61,262.89z M68.02,245.84c0-3.27-0.99-5.87-2.97-7.82
			c-1.98-1.94-4.43-2.91-7.36-2.91c-2.92,0-5.36,0.95-7.3,2.86c-1.94,1.91-3.01,4.53-3.19,7.87H68.02z"/>
		<path class="st3" d="M80.61,232.6v4.85c2-3.6,5.28-5.39,9.86-5.39c2.36,0,4.48,0.56,6.35,1.69c1.87,1.13,3.26,2.78,4.17,4.96
			c1.02-2.11,2.48-3.74,4.39-4.9c1.91-1.16,4.09-1.74,6.57-1.74c3.3,0,6.07,1.08,8.28,3.24c2.22,2.16,3.32,5.28,3.32,9.34v17.71
			h-3.76v-17c0-3.27-0.79-5.76-2.37-7.46c-1.58-1.71-3.74-2.56-6.48-2.56c-2.74,0-4.9,0.85-6.48,2.56c-1.58,1.71-2.37,4.2-2.37,7.46
			v17h-3.76v-17c0-3.27-0.79-5.76-2.37-7.46c-1.58-1.71-3.74-2.56-6.48-2.56c-2.74,0-4.9,0.85-6.48,2.56
			c-1.58,1.71-2.37,4.2-2.37,7.46v17h-3.81V232.6H80.61z"/>
		<path class="st3" d="M134.81,224.19c0,0.78-0.26,1.44-0.79,1.99c-0.53,0.54-1.18,0.82-1.96,0.82c-0.78,0-1.44-0.27-1.99-0.82
			c-0.54-0.54-0.82-1.21-0.82-1.99c0-0.78,0.27-1.44,0.82-1.99c0.54-0.54,1.21-0.82,1.99-0.82c0.78,0,1.43,0.27,1.96,0.82
			C134.55,222.74,134.81,223.4,134.81,224.19z M130.07,262.35V232.6h3.81v29.75H130.07z"/>
		<path class="st3" d="M144.51,232.6v4.85c2-3.6,5.28-5.39,9.86-5.39c3.3,0,6.07,1.08,8.28,3.24c2.21,2.16,3.32,5.28,3.32,9.34
			v17.71h-3.76v-17c0-3.27-0.79-5.76-2.37-7.46c-1.58-1.71-3.74-2.56-6.48-2.56c-2.74,0-4.9,0.85-6.48,2.56
			c-1.58,1.71-2.37,4.2-2.37,7.46v17h-3.81V232.6H144.51z"/>
		<path class="st3" d="M174.69,258.48c-2.72-2.94-4.09-6.69-4.09-11.25c0-4.56,1.35-8.23,4.06-11.01c2.71-2.78,6.15-4.17,10.32-4.17
			c2.69,0,5.05,0.65,7.08,1.96c2.03,1.31,3.54,3,4.52,5.07v-17.05h3.81v40.32h-3.81v-6.54c-0.98,2.07-2.49,3.77-4.52,5.09
			c-2.03,1.33-4.4,1.99-7.08,1.99C180.85,262.89,177.42,261.42,174.69,258.48z M193.35,256.27c2.16-2.23,3.24-5.17,3.24-8.8
			c0-3.63-1.08-6.57-3.24-8.8c-2.16-2.23-4.77-3.35-7.82-3.35c-3.05,0-5.65,1.07-7.79,3.21c-2.14,2.14-3.21,5.04-3.21,8.69
			c0,3.65,1.08,6.63,3.24,8.93c2.16,2.31,4.76,3.46,7.79,3.46C188.59,259.63,191.19,258.51,193.35,256.27z"/>
		<path class="st3" d="M265.08,205.96v56.39h-5.72v-43.39l-20.51,43.39h-3.35l-20.51-43.23v43.23h-5.72v-56.39h5.31l22.64,48.13
			l22.56-48.13H265.08z"/>
		<path class="st3" d="M285.67,262.89c-4.25,0-7.7-1.42-10.35-4.25c-2.65-2.83-3.98-6.57-3.98-11.2c0-4.63,1.35-8.35,4.06-11.17
			c2.71-2.81,6.21-4.22,10.52-4.22c4.3,0,7.73,1.33,10.27,3.98c2.54,2.65,3.81,5.94,3.81,9.86c0,1.05-0.07,2.03-0.22,2.94h-24.52
			c0.14,3.41,1.18,6.1,3.11,8.06c1.92,1.96,4.36,2.94,7.3,2.94c2.29,0,4.24-0.53,5.86-1.58c1.62-1.05,2.73-2.43,3.35-4.14h4.09
			c-0.98,2.54-2.58,4.64-4.79,6.29C291.95,262.07,289.12,262.89,285.67,262.89z M296.08,245.84c0-3.27-0.99-5.87-2.97-7.82
			c-1.98-1.94-4.43-2.91-7.36-2.91c-2.92,0-5.36,0.95-7.3,2.86c-1.94,1.91-3.01,4.53-3.19,7.87H296.08z"/>
	</g>
</g>
</svg>
